<svg height="127pt" viewBox="0 0 127 127" width="127pt" xmlns="http://www.w3.org/2000/svg" xmlns:xlink="http://www.w3.org/1999/xlink"><linearGradient id="a" gradientTransform="matrix(124 0 0 106 1.5 10.5)" gradientUnits="userSpaceOnUse" x1="0" x2=".907488" y1=".5" y2=".920078"><stop offset=".01666666667" stop-color="#f2e73f"/><stop offset=".84583333333" stop-color="#5eefe5"/></linearGradient><path d="m111.5 26.138v3.351l-.25.031-37.75 4.719v-14.719l13.72 1.96c1.093.155 2.105-.607 2.26-1.7.155-1.093-.607-2.105-1.7-2.26l-14-2-.369-.052c-.211-1.208-.788-2.333-1.671-3.208-1.12-1.13-2.65-1.76-4.24-1.76h-31c-1.59 0-3.12.63-4.24 1.76-1.13 1.12-1.76 2.65-1.76 4.24v22 2h2c-1.59 0-3.12.63-4.24 1.76-1.13 1.12-1.76 2.65-1.76 4.24v5 2h4v-2-5c0-.53.21-1.04.59-1.41.37-.38.88-.59 1.41-.59h55c.53 0 1.04.21 1.41.59.38.37.59.88.59 1.41v5 2h-59-2c-.01 0-.02 0-.02 0-1.21.01-2.4.18-3.57.49-1.21.32-2.38.76-3.51 1.3-1.13.53-2.21 1.17-3.22 1.91-.98.7-1.86 1.53-2.63 2.45-.01.01-.01.02-.02.02l-8.58 10.57-1.024 1.26h-.616c-1.01 0-1.98.4-2.69 1.12-.72.71-1.12 1.68-1.12 2.69v5.38c0 1.01.4 1.98 1.12 2.69.71.72 1.68 1.12 2.69 1.12h1.844l6.846 16.86c1.82 4.47 4.93 8.3 8.94 11s8.73 4.14 13.56 4.14h55c4.85 0 9.59-1.41 13.65-4.07 4.06-2.65 7.25-6.43 9.19-10.87l7.47-17.062c.966-.03 1.888-.426 2.57-1.118.72-.71 1.12-1.68 1.12-2.69v-5.38c0-1.01-.4-1.98-1.12-2.69-.71-.72-1.68-1.12-2.69-1.12h-.69l-.9-1.2-7.8-10.4c0-.01-.01-.01-.01-.02-.74-.95-1.6-1.81-2.55-2.54-.99-.77-2.05-1.43-3.17-1.99-1.11-.56-2.28-1.01-3.48-1.34-1.16-.32-2.36-.5-3.57-.51 0 0-.01 0-.02 0h-6v-2-5c0-1.59-.63-3.12-1.76-4.24-1.12-1.13-2.65-1.76-4.24-1.76h-14v-2-.239l38.17-4.771c.236.917.714 1.761 1.4 2.44 1 1.01 2.36 1.57 3.78 1.57h1.3c1.42 0 2.78-.56 3.78-1.57 1.01-1 1.57-2.36 1.57-3.78v-8.3c0-1.42-.56-2.78-1.57-3.78-1-1.01-2.36-1.57-3.78-1.57h-1.3c-1.42 0-2.78.56-3.78 1.57-.587.581-1.022 1.284-1.283 2.049l-12.897-2.579c-1.082-.215-2.135.488-2.35 1.57-.215 1.082.488 2.135 1.57 2.35zm4-1.449v7.461c0 .35.14.7.4.95.25.26.6.4.95.4h1.3c.35 0 .7-.14.95-.4.26-.25.4-.6.4-.95v-8.3c0-.35-.14-.7-.4-.95-.25-.26-.6-.4-.95-.4h-1.3c-.35 0-.7.14-.95.4-.019.018-.038.037-.055.057zm-46 10.043v-18.232c0-.53-.21-1.04-.59-1.41-.37-.38-.88-.59-1.41-.59h-31c-.53 0-1.04.21-1.41.59-.38.37-.59.88-.59 1.41v22 2h35v-2-1.877l-.23-1.863zm46.5 36.768h-104.926l7.556-9.3c.56-.66 1.19-1.26 1.9-1.76.81-.6 1.68-1.11 2.59-1.54.9-.44 1.85-.79 2.83-1.04.83-.23 1.69-.35 2.56-.36h70.98c.85.01 1.7.13 2.53.37.95.26 1.88.61 2.77 1.06.88.44 1.72.97 2.5 1.58.69.51 1.3 1.12 1.82 1.8zm-83.159 13c-2.789.53-5.378 1.885-7.421 3.92-2.67 2.68-4.17 6.3-4.17 10.08 0 3.78 1.5 7.4 4.17 10.08.801.798 1.687 1.492 2.636 2.072-1.002-.451-1.967-.992-2.886-1.612-3.34-2.25-5.94-5.45-7.46-9.19l-6.24-15.35zm29 0c-2.789.53-5.378 1.885-7.421 3.92-2.67 2.68-4.17 6.3-4.17 10.08 0 3.78 1.5 7.4 4.17 10.08 2.043 2.035 4.632 3.39 7.421 3.92h-23.682c2.789-.53 5.378-1.885 7.421-3.92 2.67-2.68 4.17-6.3 4.17-10.08s-1.5-7.4-4.17-10.08c-2.043-2.035-4.632-3.39-7.421-3.92zm29 0c-2.789.53-5.378 1.885-7.421 3.92-2.67 2.68-4.17 6.3-4.17 10.08 0 3.78 1.5 7.4 4.17 10.08 2.043 2.035 4.632 3.39 7.421 3.92h-23.682c2.789-.53 5.378-1.885 7.421-3.92 2.67-2.68 4.17-6.3 4.17-10.08s-1.5-7.4-4.17-10.08c-2.043-2.035-4.632-3.39-7.421-3.92zm26.599 0-6.76 15.46c-1.581 3.609-4.16 6.71-7.418 8.927.107-.1.213-.203.318-.307 2.67-2.68 4.17-6.3 4.17-10.08s-1.5-7.4-4.17-10.08c-2.043-2.035-4.632-3.39-7.421-3.92zm-111.91-4h115.97v-5h-116v5zm25.72 18c0-1.13.45-2.21 1.24-3.01.8-.79 1.88-1.24 3.01-1.24s2.21.45 3.01 1.24c.79.8 1.24 1.88 1.24 3.01s-.45 2.21-1.24 3.01c-.8.79-1.88 1.24-3.01 1.24s-2.21-.45-3.01-1.24c-.79-.8-1.24-1.88-1.24-3.01zm29 0c0-1.13.45-2.21 1.24-3.01.8-.79 1.88-1.24 3.01-1.24s2.21.45 3.01 1.24c.79.8 1.24 1.88 1.24 3.01s-.45 2.21-1.24 3.01c-.8.79-1.88 1.24-3.01 1.24s-2.21-.45-3.01-1.24c-.79-.8-1.24-1.88-1.24-3.01zm35.06 3.85c.751-.353 1.647-.033 2 .715.353.748.031 1.642-.72 1.995-.97.45-2.02.69-3.09.69-1.92 0-3.77-.76-5.13-2.12s-2.12-3.21-2.12-5.13.76-3.77 2.12-5.13 3.21-2.12 5.13-2.12c1.7 0 3.35.6 4.65 1.69.635.53.72 1.475.19 2.11-.53.635-1.475.72-2.11.19-.77-.64-1.73-.99-2.73-.99-1.13 0-2.21.45-3.01 1.24-.79.8-1.24 1.88-1.24 3.01s.45 2.21 1.25 3.01c.79.79 1.87 1.24 3 1.24.63 0 1.24-.14 1.81-.4zm-67.06-3.85c0-1.92.76-3.77 2.12-5.13s3.21-2.12 5.13-2.12 3.77.76 5.13 2.12 2.12 3.21 2.12 5.13-.76 3.77-2.12 5.13-3.21 2.12-5.13 2.12-3.77-.76-5.13-2.12-2.12-3.21-2.12-5.13zm29 0c0-1.92.76-3.77 2.12-5.13s3.21-2.12 5.13-2.12 3.77.76 5.13 2.12 2.12 3.21 2.12 5.13-.76 3.77-2.12 5.13-3.21 2.12-5.13 2.12-3.77-.76-5.13-2.12-2.12-3.21-2.12-5.13zm26 0c0-2.72 1.08-5.33 3-7.25s4.53-3 7.25-3 5.33 1.08 7.25 3 3 4.53 3 7.25-1.08 5.33-3 7.25-4.53 3-7.25 3-5.33-1.08-7.25-3-3-4.53-3-7.25zm-58 0c0-2.72 1.08-5.33 3-7.25s4.53-3 7.25-3 5.33 1.08 7.25 3 3 4.53 3 7.25-1.08 5.33-3 7.25-4.53 3-7.25 3-5.33-1.08-7.25-3-3-4.53-3-7.25zm29 0c0-2.72 1.08-5.33 3-7.25s4.53-3 7.25-3 5.33 1.08 7.25 3 3 4.53 3 7.25-1.08 5.33-3 7.25-4.53 3-7.25 3-5.33-1.08-7.25-3-3-4.53-3-7.25z" fill="url(#a)" fill-rule="evenodd"/></svg>